# xmcd
#
# Track frame offsets: 
#        150
#        32705
#        53874
#        79437
#        100571
#        120230
#        138558
#        154773
#        177546
#        206076
#        221478
#        241711
#        259655
#        282161
#        302275
#        317261
#        332882
#
# Disc length: 4796 seconds
#
# Revision: 1
# Processed by: cddbd v1.5.2PL0 Copyright (c) Steve Scherf et al.
# Submitted via: ExactAudioCopy v0.95a5
#
DISCID=e512ba11
DTITLE=Various Artist - Akella Presents - Various Styles Of Blues - vol.1  CD
DTITLE=1
DYEAR=2010
DGENRE=Blues
TTITLE0=For Abby - RONNIE EARL
TTITLE1=Walkin' On Me - BIG HOUSE
TTITLE2=House of the Rising Sun - BTO
TTITLE3=Congo Square - JOHN MAYALL
TTITLE4=Let's Straighten It Out - The BONE SHAKERS
TTITLE5=Darker Shade of Blue - SCOTT ELLISON
TTITLE6=Invitation to the Blues - BLUES Co
TTITLE7=Lookin' for the Summer - CHRIS REA
TTITLE8=Mea Culpa - MIKE and The MECHANICS
TTITLE9=Anyway the Wind Blow - BILL WYMAN'S RHYTHM KINGS
TTITLE10=My Father's Son - JOE COCKER
TTITLE11=Same Kind of Crazy - DELBERT McCLINTON
TTITLE12=As the Years Go Passing By - NEAL BLACK
TTITLE13=Blue Side of Life - LIVIN' BLUES
TTITLE14=That's What Love Will Do - SAVOY BROWN
TTITLE15=Rad Gumbo - LITTLE FEAT
TTITLE16=Black Paris Blues - MIGHTY MO RODGERS
EXTD=
EXTT0=
EXTT1=
EXTT2=
EXTT3=
EXTT4=
EXTT5=
EXTT6=
EXTT7=
EXTT8=
EXTT9=
EXTT10=
EXTT11=
EXTT12=
EXTT13=
EXTT14=
EXTT15=
EXTT16=
PLAYORDER=
